<svg width="232" height="46" viewBox="0 0 232 46" fill="none" xmlns="http://www.w3.org/2000/svg">
<g clip-path="url(#clip0)">
<path fill-rule="evenodd" clip-rule="evenodd" d="M93.3694 35.9739C84.6247 42.517 71.9489 46.0002 61.0327 46.0002C45.7309 46.0002 31.9561 40.2663 21.5312 30.7169C20.7122 29.9667 21.4413 28.9431 22.4294 29.5219C33.6786 36.1615 47.5907 40.1591 61.9573 40.1591C71.6478 40.1591 82.3051 38.1174 92.1066 33.9C93.5754 33.2677 94.8171 34.8914 93.3694 35.9739Z" fill="#FF9900"/>
<path fill-rule="evenodd" clip-rule="evenodd" d="M97.0099 31.7618C95.8897 30.3096 89.6179 31.0705 86.7964 31.4135C85.9404 31.5153 85.8083 30.7597 86.5797 30.2131C91.5835 26.6495 99.7892 27.6784 100.74 28.868C101.702 30.0738 100.487 38.4121 95.7999 42.3937C95.076 43.0046 94.3944 42.6777 94.7115 41.8685C95.7629 39.1998 98.1301 33.214 97.0099 31.7618Z" fill="#FF9900"/>
<path fill-rule="evenodd" clip-rule="evenodd" d="M86.9974 5.02666V1.55951C86.9974 1.03435 87.3937 0.680664 87.8639 0.680664H103.176C103.668 0.680664 104.059 1.0397 104.059 1.55415V4.52293C104.053 5.0213 103.641 5.66971 102.907 6.70396L94.9759 18.1879C97.919 18.1182 101.036 18.563 103.71 20.0903C104.312 20.4332 104.476 20.9423 104.524 21.4407V25.1383C104.524 25.6474 103.974 26.2368 103.398 25.9314C98.6851 23.4288 92.4291 23.1555 87.2193 25.9635C86.6857 26.2529 86.1309 25.6688 86.1309 25.1597V21.6497C86.1309 21.087 86.1414 20.1278 86.7015 19.2704L95.89 5.90014H87.8904C87.3937 5.89478 86.9974 5.5411 86.9974 5.02666Z" fill="black"/>
<path fill-rule="evenodd" clip-rule="evenodd" d="M31.1426 26.6655H26.4823C26.0385 26.6387 25.6844 26.2957 25.6475 25.867L25.6527 1.61841C25.6527 1.13076 26.0543 0.744927 26.551 0.744927H30.889C31.3434 0.766362 31.708 1.11468 31.7344 1.55947V4.72652H31.8242C32.9549 1.66664 35.0843 0.23584 37.9534 0.23584C40.8647 0.23584 42.6929 1.66664 43.998 4.72652C45.1287 1.66664 47.6914 0.23584 50.4336 0.23584C52.3886 0.23584 54.5233 1.05038 55.8231 2.88845C57.3026 4.93015 56.9961 7.88822 56.9961 10.4926L56.9908 25.792C56.9908 26.2743 56.5893 26.6655 56.0926 26.6655H51.4376C50.9726 26.6333 50.6027 26.2582 50.6027 25.7973V12.9416C50.6027 11.9234 50.6926 9.36725 50.4706 8.40266C50.1219 6.76823 49.081 6.31273 47.7336 6.31273C46.6029 6.31273 45.4299 7.07904 44.9491 8.30084C44.4683 9.52801 44.5158 11.5644 44.5158 12.9416V25.792C44.5158 26.2743 44.1143 26.6655 43.6176 26.6655H38.9626C38.4976 26.6333 38.1277 26.2582 38.1277 25.7973L38.1225 12.9416C38.1225 10.2354 38.5557 6.25914 35.2534 6.25914C31.9035 6.25914 32.0355 10.1389 32.0355 12.9416V25.792C32.0408 26.2743 31.6393 26.6655 31.1426 26.6655Z" fill="black"/>
<path fill-rule="evenodd" clip-rule="evenodd" d="M117.237 0.23584C124.153 0.23584 127.889 6.25914 127.889 13.9115C127.889 21.312 123.757 27.1799 117.237 27.1799C110.452 27.1799 106.759 21.1566 106.759 13.6597C106.759 6.10373 110.494 0.23584 117.237 0.23584ZM117.279 5.18202C113.844 5.18202 113.628 9.92456 113.628 12.888C113.628 15.846 113.585 22.1748 117.237 22.1748C120.845 22.1748 121.02 17.0732 121.02 13.9597C121.02 11.918 120.935 9.46906 120.322 7.52918C119.804 5.84651 118.758 5.18202 117.279 5.18202Z" fill="black"/>
<path fill-rule="evenodd" clip-rule="evenodd" d="M136.855 26.6655H132.216C131.751 26.6333 131.381 26.2582 131.381 25.7974L131.376 1.5434C131.413 1.09862 131.799 0.750298 132.269 0.750298H136.591C136.998 0.771733 137.331 1.05575 137.421 1.43087V5.13916H137.51C138.816 1.82206 140.638 0.241211 143.856 0.241211C145.943 0.241211 147.988 1.00752 149.293 3.09746C150.509 5.03734 150.509 8.30086 150.509 10.648V25.9045C150.456 26.3332 150.075 26.6709 149.616 26.6709H144.945C144.511 26.6441 144.168 26.3225 144.115 25.9045V12.738C144.115 10.0853 144.422 6.20556 141.204 6.20556C140.073 6.20556 139.027 6.97187 138.509 8.14545C137.859 9.62448 137.769 11.1035 137.769 12.738V25.792C137.753 26.2743 137.352 26.6655 136.855 26.6655Z" fill="black"/>
<path fill-rule="evenodd" clip-rule="evenodd" d="M153.425 24.7415C153.425 23.5197 154.45 22.5337 155.718 22.5337C156.986 22.5337 158.011 23.5251 158.011 24.7415C158.011 25.9633 156.986 26.9494 155.718 26.9494C154.45 26.9494 153.425 25.958 153.425 24.7415Z" fill="black"/>
<path d="M202.776 26.6707C202.295 26.6547 201.909 26.2742 201.909 25.7973V1.54866C201.941 1.11996 202.3 0.782351 202.744 0.750198H204.456C204.926 0.750198 205.312 1.09852 205.349 1.54866V5.08547C206.564 2.28282 208.831 0.0910645 211.695 0.0910645H211.874H212.049C215.087 0.0910645 217.311 2.3632 218.136 5.66422C219.425 2.40607 221.85 0.0910645 225.047 0.0910645H225.211H225.396C227.657 0.0910645 229.829 1.5701 230.959 3.81544C232.048 5.95896 232 8.8152 232 11.2159V25.8026C232 26.2688 231.63 26.644 231.165 26.6707H229.121C228.682 26.6547 228.317 26.3385 228.259 25.9205V11.2106C228.259 9.47434 228.344 7.63627 227.652 6.05542C226.938 4.43706 225.586 3.4296 224.133 3.35458C222.505 3.43496 221.015 4.63533 220.048 6.25905C218.786 8.34899 218.833 10.2406 218.833 12.6896V25.9259C218.775 26.3278 218.432 26.644 218.004 26.6707H215.969C215.488 26.6547 215.097 26.2742 215.097 25.7973L215.087 10.2406C215.087 8.80984 215.002 7.12718 214.347 5.85178C213.597 4.38347 212.244 3.4296 210.833 3.35458C209.365 3.44032 207.885 4.57639 207.003 5.90001C205.872 7.58268 205.655 9.67797 205.655 11.8161V25.7919C205.655 26.2581 205.286 26.6332 204.821 26.66H202.776V26.6707Z" fill="black"/>
<path d="M188.736 27.1798C182.126 27.1798 179.173 20.342 179.173 13.5041C179.173 6.30727 182.65 0.0856934 189.302 0.0856934H189.471H189.651C196.128 0.0856934 199.346 6.7199 199.346 13.5577C199.346 20.8028 195.78 27.1798 189.085 27.1798H188.916H188.736ZM189.223 23.8627C191.4 23.7931 193.111 22.4266 194.126 20.1437C195.04 18.102 195.214 15.7548 195.214 13.5095C195.214 11.0605 194.955 8.50974 193.825 6.4198C192.81 4.59245 191.067 3.42959 189.217 3.35992C187.157 3.43495 185.323 4.84967 184.393 7.03071C183.569 8.91701 183.305 11.4196 183.305 13.5095C183.305 15.8567 183.611 18.5629 184.568 20.5992C185.498 22.5337 187.289 23.7931 189.223 23.8627Z" fill="black"/>
<path d="M168.082 23.7609C171.052 23.6644 172.605 21.253 173.255 18.1288C173.382 17.7376 173.678 17.4375 174.111 17.4375L176.071 17.4268C176.536 17.4536 176.959 17.8126 176.922 18.2467C176.018 23.5626 172.848 27.1798 168.341 27.1798H168.161H167.992C161.424 27.1798 158.598 20.4974 158.598 13.7078C158.598 6.97176 161.467 0.0856934 168.034 0.0856934H168.209H168.388C172.943 0.0856934 176.198 3.64394 176.901 8.96524C176.901 9.36179 176.536 9.71011 176.108 9.75834L174.053 9.73155C173.625 9.66724 173.345 9.29212 173.281 8.87414C172.785 5.90536 171.104 3.54212 168.299 3.45102C163.834 3.59571 162.566 9.16887 162.566 13.4506C162.56 17.5876 163.623 23.6109 168.082 23.7609Z" fill="black"/>
<path fill-rule="evenodd" clip-rule="evenodd" d="M74.7916 15.085C74.7916 16.9285 74.8339 18.4611 73.9198 20.0955C73.1801 21.4245 72.0018 22.2444 70.6967 22.2444C68.9108 22.2444 67.8646 20.8618 67.8646 18.8201C67.8646 14.7957 71.4259 14.0669 74.7916 14.0669V15.085ZM79.4836 26.6011C79.1771 26.8798 78.7333 26.9012 78.3846 26.7137C76.8364 25.4115 76.5617 24.8059 75.7163 23.5627C73.1589 26.2046 71.3466 26.9977 68.0337 26.9977C64.1131 26.9977 61.0591 24.5433 61.0591 19.6347C61.0591 15.7978 63.1092 13.1934 66.0258 11.9126C68.5515 10.7873 72.081 10.5836 74.7863 10.2782V9.66193C74.7863 8.53658 74.8762 7.2076 74.221 6.23765C73.6556 5.36953 72.5671 5.01049 71.6055 5.01049C69.8302 5.01049 68.2503 5.9322 67.8593 7.84529C67.78 8.26864 67.4736 8.69199 67.0509 8.71342L62.5385 8.22041C62.1581 8.13467 61.7354 7.82386 61.8411 7.23439C62.882 1.67731 67.8276 0 72.2607 0C74.5274 0 77.4916 0.610904 79.2775 2.35252C81.5443 4.5014 81.3276 7.363 81.3276 10.4818V17.8448C81.3276 20.058 82.2365 21.028 83.0871 22.223C83.383 22.6517 83.4517 23.1661 83.0713 23.4769C82.1202 24.2861 80.4294 25.7759 79.4995 26.6172L79.4836 26.6011Z" fill="black"/>
<path fill-rule="evenodd" clip-rule="evenodd" d="M13.7272 15.085C13.7272 16.9285 13.7695 18.4611 12.8554 20.0955C12.1157 21.4245 10.9374 22.2444 9.63232 22.2444C7.84641 22.2444 6.80022 20.8618 6.80022 18.8201C6.80022 14.7957 10.3615 14.0669 13.7272 14.0669V15.085ZM18.4245 26.6011C18.1181 26.8798 17.6689 26.9012 17.3255 26.7137C15.7774 25.4115 15.5026 24.8059 14.6572 23.5627C12.0998 26.2046 10.2875 26.9977 6.97987 26.9977C3.04874 26.9977 0 24.5433 0 19.6347C0 15.7978 2.0501 13.1934 4.96675 11.9126C7.49239 10.7873 11.022 10.5836 13.7272 10.2782V9.66193C13.7272 8.53658 13.8118 7.2076 13.1619 6.23765C12.5965 5.36953 11.5081 5.01049 10.5464 5.01049C8.77107 5.01049 7.19122 5.9322 6.80022 7.84529C6.72096 8.26864 6.4145 8.69199 5.9918 8.71342L1.47946 8.22041C1.09903 8.13467 0.676323 7.82386 0.781999 7.23439C1.81762 1.67731 6.76323 0 11.1963 0C13.4631 0 16.4273 0.610904 18.2132 2.35252C20.4799 4.5014 20.2633 7.363 20.2633 10.4818V17.8448C20.2633 20.058 21.1721 21.028 22.0228 22.223C22.3187 22.6517 22.3874 23.1661 22.0069 23.4769C21.0558 24.2861 19.365 25.7759 18.4351 26.6172L18.4245 26.6011Z" fill="black"/>
</g>
<defs>
<clipPath id="clip0">
<rect width="232" height="46" fill="white"/>
</clipPath>
</defs>
</svg>
