<svg width="233" height="63" viewBox="0 0 233 63" fill="none" xmlns="http://www.w3.org/2000/svg">
<path d="M12.3676 35.7095C12.0209 35.4779 11.6083 35.2106 11.2781 34.8899C10.816 34.4444 10.4693 33.9099 10.5354 33.1972C10.6344 31.9499 11.9219 31.3976 12.9453 31.4154C15.9494 31.5045 19.2837 32.7695 22.1888 33.5001C25.6882 34.391 28.7088 35.2284 32.2412 35.9233C46.8492 38.8098 61.7709 39.9858 76.61 40.2709C97.474 40.0571 118.239 36.6004 138.492 31.2372C148.66 28.5467 158.712 25.3395 168.649 21.8116C178.124 18.4618 187.202 14.3281 196.99 11.9048C202.735 10.4794 209.073 9.2856 214.636 12.0652C219.571 14.5419 223.368 20.5109 221.865 26.5155C221.123 29.4554 219.191 31.647 216.782 33.3397C214.718 34.783 212.457 35.8343 210.162 36.7786C201.629 40.3422 192.567 42.4981 183.604 44.3334C164.968 48.1464 146.036 50.2133 127.136 51.6743C104.852 53.4027 82.998 52.4583 60.9126 48.9482C44.4228 46.2933 27.8175 42.5516 12.3676 35.7095Z" fill="#EFC432"/>
</svg>
