<svg width="24" height="25" viewBox="0 0 24 25" fill="none" xmlns="http://www.w3.org/2000/svg">
<path d="M21.8768 20.7189L16.067 14.9092C17.169 13.5486 17.8323 11.8193 17.8323 9.9361C17.8323 5.57086 14.2811 2.01929 9.91584 2.01929C5.55059 2.01929 1.99902 5.57086 1.99902 9.9361C1.99902 14.3013 5.55059 17.8529 9.91584 17.8529C11.799 17.8529 13.5283 17.1896 14.8889 16.0877L20.6987 21.8975C20.8616 22.0604 21.1252 22.0604 21.2881 21.8975L21.8772 21.3084C22.0397 21.1455 22.0397 20.8814 21.8768 20.7189ZM9.91584 16.1861C6.46935 16.1861 3.66582 13.3826 3.66582 9.9361C3.66582 6.48961 6.46935 3.68609 9.91584 3.68609C13.3623 3.68609 16.1659 6.48961 16.1659 9.9361C16.1659 13.3826 13.3623 16.1861 9.91584 16.1861Z" fill="#BDBDBD" stroke="#BDBDBD" stroke-width="1.27968"/>
</svg>
