<svg width="261" height="260" viewBox="0 0 261 260" fill="none" xmlns="http://www.w3.org/2000/svg">
<path d="M194.087 73.9873C192.464 71.9217 190.694 70.0037 188.776 68.2332C161.038 41.971 111.612 46.3972 82.1038 67.6431C56.5793 86.0856 47.2842 117.364 54.0711 147.758C60.4153 175.938 84.1693 203.233 113.677 208.397C198.071 223.446 239.234 130.053 194.087 73.9873Z" fill="#EFC432"/>
<path d="M26.4812 76.4955C26.1861 76.348 25.891 76.2004 25.596 76.0529C21.3173 73.6922 13.4976 72.6594 10.3993 77.6758C5.53045 85.7906 17.4812 92.725 24.1206 94.3479C28.2517 95.3807 35.6287 97.8889 39.4648 94.7905C46.2516 89.4791 30.1697 78.7086 26.4812 76.4955Z" fill="#F08828"/>
<path d="M36.0712 49.2005C34.4482 45.8071 33.563 40.053 37.2515 37.6923C43.0056 34.0038 50.9727 41.3809 54.5137 45.3645C57.317 48.6104 69.5629 66.3152 57.9072 64.5447C50.3826 63.5119 41.9728 57.6103 37.399 51.5612C36.9564 50.8235 36.5138 50.0858 36.0712 49.2005Z" fill="#F08828"/>
<path d="M72.5138 18.217C72.8089 16.4465 73.399 14.8236 74.7269 13.4957C77.5301 10.6924 81.9564 11.135 84.9072 13.3481C86.6777 14.676 88.1531 16.594 89.3334 18.5121C92.5793 23.9711 94.7924 32.676 94.2022 39.0202C93.6121 45.3644 88.8908 43.889 85.2023 40.7907C80.1859 36.8071 75.9072 31.2006 73.6941 25.2989C72.8089 23.2334 72.2187 20.5776 72.5138 18.217Z" fill="#F08828"/>
<path d="M118.989 7.29902C120.022 4.05313 123.268 0.954773 126.956 0.364611C134.038 -0.668173 137.579 7.00394 137.579 12.4629C137.579 18.0695 135.366 24.1186 132.858 29.135C130.054 34.7416 125.038 38.135 121.645 31.3481C119.284 26.6268 117.513 19.6924 117.809 14.5285C117.956 12.1679 118.251 9.51213 118.989 7.29902Z" fill="#F08828"/>
<path d="M175.792 8.03669C164.726 10.6924 162.661 27.6596 164.431 35.9219C165.612 41.2333 169.3 42.1186 173.579 38.8727C177.562 35.7743 180.661 31.4956 183.021 27.3645C185.53 22.9383 187.595 17.3317 185.825 12.4629C184.349 8.92193 179.628 7.15144 175.792 8.03669Z" fill="#F08828"/>
<path d="M3.1697 134.184C10.1041 141.413 25.1532 135.807 30.6122 130.938C34.1532 127.692 33.1204 124.446 28.8418 122.676C24.8582 121.053 20.1369 120.463 16.0057 120.463C11.432 120.463 5.08773 121.053 2.13692 124.594C0.071352 127.249 0.809055 131.676 3.1697 134.184Z" fill="#F08828"/>
<path d="M200.579 56.43C199.251 61.0037 202.644 62.9218 206.776 62.3316C214.743 61.1513 228.317 54.807 229.202 45.512C229.644 41.6759 227.136 38.43 223.448 37.5448C218.431 36.3645 214.153 38.5776 210.612 41.6759C206.481 45.2169 202.202 50.971 200.579 56.43Z" fill="#F08828"/>
<path d="M39.7596 168.856C42.1202 164.725 39.1694 162.069 35.0383 161.774C27.0711 161.184 12.6121 164.135 9.6613 172.987C8.48098 176.528 10.1039 180.216 13.4974 181.839C18.0711 184.052 23.6777 181.692 27.8088 179.626C32.6776 177.118 37.1038 173.725 39.7596 168.856Z" fill="#F08828"/>
<path d="M245.579 78.8561C242.038 78.7086 238.792 80.184 235.841 81.807C232.89 83.4299 230.087 85.3479 227.431 87.266C225.513 88.7414 223.595 90.8069 224.481 93.02C225.218 94.7905 227.579 95.6758 229.644 96.2659C236.136 97.5938 242.923 97.1512 248.677 94.643C250.005 94.0528 251.333 93.4627 252.366 92.2823C256.644 87.561 252.956 79.2988 245.579 78.8561Z" fill="#F08828"/>
<path d="M207.071 219.905C207.218 220.2 207.366 220.347 207.661 220.642C210.317 224.183 216.366 228.02 220.792 224.921C227.874 220.052 220.497 209.872 215.776 206.036C212.677 203.675 207.661 198.806 203.382 199.987C195.71 201.757 204.858 216.806 207.071 219.905Z" fill="#F08828"/>
<path d="M183.464 241.593C183.612 244.987 182.136 250.003 178.153 250.593C171.956 251.479 168.267 242.479 166.792 237.905C165.612 234.216 162.218 215.036 171.071 220.79C176.825 224.479 181.546 232.446 183.022 239.233C183.317 239.97 183.464 240.708 183.464 241.593Z" fill="#F08828"/>
<path d="M138.317 256.2C137.432 257.528 136.251 258.708 134.776 259.298C131.382 260.479 127.989 258.561 126.366 255.61C125.333 253.839 124.891 251.774 124.743 249.708C124.005 243.954 125.628 235.987 128.432 230.97C131.235 225.954 134.628 228.905 136.546 232.888C139.202 238.052 140.677 244.249 140.235 250.003C140.087 252.069 139.497 254.429 138.317 256.2Z" fill="#F08828"/>
<path d="M89.9235 247.052C87.8579 249.413 84.0218 250.741 80.7759 249.708C74.5792 247.938 74.5792 240.266 76.4973 235.692C78.5628 231.118 82.5464 226.987 86.53 223.741C90.9562 220.2 96.4153 219.315 96.5628 226.102C96.7103 230.97 95.53 237.167 93.4644 241.446C92.5792 243.364 91.3989 245.429 89.9235 247.052Z" fill="#F08828"/>
<path d="M39.9074 223.151C49.9401 225.069 58.0548 211.938 59.5302 204.413C60.563 199.544 57.7598 197.479 53.186 198.512C48.7598 199.544 44.6287 201.905 41.0877 204.413C37.2516 207.069 33.5631 210.905 33.268 215.626C33.1205 219.315 36.3664 222.561 39.9074 223.151Z" fill="#F08828"/>
<path d="M250.743 177.561C247.792 169.004 233.185 167.971 226.841 170.036C222.71 171.364 222.267 174.463 225.218 177.413C227.874 180.217 231.562 182.43 234.956 184.053C238.644 185.823 244.251 187.594 247.939 185.823C250.743 184.495 251.776 180.659 250.743 177.561Z" fill="#F08828"/>
<path d="M231.71 132.856C229.054 136.249 231.415 139.053 235.104 139.79C242.186 141.413 255.612 140.528 259.448 133.004C260.923 129.905 260.038 126.364 257.235 124.446C253.399 121.79 248.087 123.266 243.956 124.741C239.235 126.217 234.661 128.872 231.71 132.856Z" fill="#F08828"/>
</svg>
