<svg width="255" height="61" viewBox="0 0 255 61" fill="none" xmlns="http://www.w3.org/2000/svg">
<g clip-path="url(#clip0)">
<path d="M151.286 35.1735C151.286 29.1421 148.689 23.8396 139.902 23.8396C135.4 23.8396 131.822 25.0973 129.859 26.2121L131.302 31.0573C133.091 29.9425 135.934 29.0135 138.617 29.0135C143.076 28.9992 143.797 31.5146 143.797 33.1154V33.5013C134.087 33.487 127.955 36.8171 127.955 43.606C127.955 47.7508 131.086 51.6383 136.511 51.6383C139.858 51.6383 142.643 50.3234 144.317 48.2082H144.49C144.49 48.2082 145.601 52.796 151.704 51.0523C151.387 49.1372 151.286 47.0933 151.286 44.6493V35.1735ZM144.043 41.5336C144.043 42.0195 143.999 42.5341 143.87 42.9771C143.307 44.8209 141.373 46.3787 138.964 46.3787C136.958 46.3787 135.357 45.2496 135.357 42.8628C135.357 39.2039 139.425 38.2035 144.043 38.2178V41.5336Z" fill="#0078BF"/>
<path d="M0 15.6357C0 15.6357 6.34867 41.3907 7.35868 45.564C8.54184 50.4378 10.6773 52.2386 16.8095 51.0238L20.763 35.0591C21.773 31.0858 22.4368 28.2702 23.0861 24.2255H23.2015C23.6488 28.2988 24.2981 31.1001 25.1205 35.0734C25.1205 35.0734 26.7365 42.3197 27.559 46.1357C28.3814 49.9375 30.69 52.3386 36.7068 51.038L46.1433 15.6357H38.5249L35.3072 30.9429C34.4415 35.4021 33.6624 38.8752 33.0419 42.9628H32.9409C32.3926 38.9324 31.6856 35.5879 30.8055 31.2431L27.4436 15.65H19.4933L15.9005 30.8572C14.8761 35.4736 13.9382 39.2039 13.3322 43.1486H13.2456C12.6252 39.4469 11.8027 34.759 10.9082 30.2855C10.9082 30.2855 8.7727 19.4089 8.02241 15.6643" fill="#0078BF"/>
<path d="M67.815 35.1735C67.815 29.1421 65.2178 23.8396 56.4307 23.8396C51.9145 23.8396 48.3362 25.0973 46.3883 26.2121L47.8167 31.0573C49.6059 29.9425 52.4484 29.0135 55.1321 29.0135C59.5906 28.9992 60.312 31.5146 60.312 33.1154V33.5013C50.6015 33.487 44.4692 36.8171 44.4692 43.606C44.4692 47.7508 47.6003 51.6383 53.0255 51.6383C56.373 51.6383 59.1577 50.3234 60.8315 48.2082H60.9902C60.9902 48.2082 62.1012 52.796 68.219 51.0523C67.9016 49.1372 67.7862 47.0933 67.7862 44.6493L67.815 35.1735ZM60.5718 41.5336C60.5718 42.0195 60.5285 42.5341 60.3986 42.9771C59.8359 44.8209 57.9169 46.3787 55.5073 46.3787C53.5017 46.3787 51.9001 45.2496 51.9001 42.8628C51.9001 39.2039 55.9546 38.2035 60.5862 38.2178V41.5336H60.5718Z" fill="#0078BF"/>
<path d="M79.9208 43.5202V15.6357H72.6631V51.038H79.9208" fill="#0078BF"/>
<path d="M174.862 15.6357V41.748C174.862 45.3497 175.54 47.8651 177.012 49.4087C178.282 50.7522 180.389 51.624 182.914 51.624C185.063 51.624 187.17 51.2238 188.166 50.8522L188.065 45.2353C187.329 45.4211 186.477 45.564 185.309 45.564C182.841 45.564 182.005 43.9919 182.005 40.7618V30.7714H188.324V24.0111H182.005V15.6357" fill="#0078BF"/>
<path d="M156.134 24.4543V51.0525H163.622V37.4318C163.622 36.7029 163.666 36.0597 163.781 35.4737C164.344 32.6152 166.537 30.8001 169.697 30.8001C170.563 30.8001 171.183 30.8859 171.847 30.9859V24.0112C171.284 23.8969 170.909 23.854 170.202 23.854C167.403 23.854 164.228 25.6406 162.901 29.4709H162.699V24.4543" fill="#0078BF"/>
<path d="M85 24.4542V51.0523H92.301V35.445C92.301 34.7161 92.3875 33.9443 92.6473 33.2726C93.2533 31.7004 94.725 29.8567 97.0769 29.8567C100.02 29.8567 101.391 32.315 101.391 35.8881V51.0381H108.678V35.2592C108.678 34.5589 108.779 33.7157 108.981 33.1011C109.572 31.3145 111.174 29.8567 113.353 29.8567C116.339 29.8567 117.768 32.2864 117.768 36.4598V51.0238H125.054V35.3736C125.054 27.1126 120.812 23.8396 116.036 23.8396C113.915 23.8396 112.242 24.3684 110.741 25.2831C109.471 26.0549 108.331 27.1554 107.336 28.599H107.235C106.08 25.7262 103.368 23.8396 99.8328 23.8396C95.2877 23.8396 93.2533 26.1121 92.0124 28.0559H91.897V24.4399" fill="#0078BF"/>
<path d="M227.556 20.5382C228.999 20.5382 230.182 19.795 230.341 18.8374L231.769 2.87277C231.769 1.30061 229.908 0 227.556 0C225.219 0 223.357 1.30061 223.357 2.87277L224.786 18.8374C224.93 19.795 226.128 20.5382 227.556 20.5382Z" fill="#FCBD1B"/>
<path d="M218.856 25.5262C219.578 24.2971 219.52 22.8964 218.755 22.2818L205.509 13.0775C204.139 12.2914 202.075 13.2347 200.892 15.25C199.723 17.2652 199.925 19.5091 201.296 20.2952L215.956 27.0555C216.894 27.3985 218.135 26.7411 218.856 25.5262Z" fill="#FCBD1B"/>
<path d="M236.271 25.5119C236.993 26.7411 238.234 27.3985 239.157 27.0555L253.831 20.2952C255.216 19.5091 255.404 17.2652 254.235 15.25C253.066 13.2347 251.003 12.2914 249.618 13.0775L236.372 22.2818C235.608 22.8964 235.564 24.2828 236.271 25.5119Z" fill="#FCBD1B"/>
<path d="M227.556 40.4619C228.999 40.4619 230.182 41.2051 230.341 42.1627L231.769 58.1273C231.769 59.6995 229.908 61.0001 227.556 61.0001C225.219 61.0001 223.357 59.6995 223.357 58.1273L224.786 42.1627C224.93 41.2051 226.128 40.4619 227.556 40.4619Z" fill="#FCBD1B"/>
<path d="M236.271 35.488C236.993 34.2445 238.234 33.6014 239.157 33.9444L253.831 40.7047C255.216 41.4908 255.404 43.7347 254.235 45.7499C253.066 47.7509 251.003 48.7085 249.618 47.9224L236.372 38.7181C235.608 38.1035 235.564 36.7171 236.271 35.488Z" fill="#FCBD1B"/>
<path d="M218.856 35.4881C219.578 36.7173 219.52 38.1179 218.755 38.7325L205.509 47.9225C204.139 48.7086 202.075 47.7653 200.892 45.7501C199.723 43.7348 199.925 41.4909 201.296 40.6906L215.956 33.9303C216.894 33.6015 218.135 34.2447 218.856 35.4881Z" fill="#FCBD1B"/>
</g>
<defs>
<clipPath id="clip0">
<rect width="255" height="61" fill="white"/>
</clipPath>
</defs>
</svg>
