<svg width="15" height="16" viewBox="0 0 15 16" fill="none" xmlns="http://www.w3.org/2000/svg">
<path fill-rule="evenodd" clip-rule="evenodd" d="M12.9319 2.99683C11.6112 1.67608 9.85799 0.948665 7.98749 0.945312C4.13252 0.945312 0.998261 4.08293 0.994909 7.93455C0.994909 9.16814 1.31671 10.3682 1.92681 11.4308L0.93457 15.0545L4.64205 14.0824C5.66445 14.6388 6.81424 14.9338 7.98414 14.9338H7.98749C11.8391 14.9338 14.9767 11.7962 14.9801 7.94125C14.9801 6.0741 14.2527 4.31758 12.9319 2.99683ZM7.98749 13.7539C6.94162 13.7539 5.91922 13.4723 5.02754 12.9427L4.81636 12.8153L2.61735 13.3918L3.20398 11.2465L3.06654 11.0252C2.48326 10.1 2.17822 9.0307 2.17822 7.93455C2.17822 4.72989 4.78619 2.12527 7.99085 2.12527C9.54289 2.12527 11.0011 2.73201 12.1006 3.82816C13.1967 4.92767 13.8001 6.38585 13.8001 7.9379C13.7968 11.1459 11.1888 13.7539 7.98749 13.7539ZM11.1754 9.39944C11.0011 9.31228 10.1429 8.88991 9.98202 8.82957C9.82112 8.77258 9.7038 8.74241 9.58982 8.91673C9.4725 9.09104 9.13728 9.48659 9.03672 9.60056C8.93615 9.71789 8.83224 9.7313 8.65792 9.64414C8.48361 9.55699 7.92045 9.37262 7.25337 8.77594C6.73379 8.31334 6.38517 7.74012 6.28125 7.56581C6.18069 7.3915 6.27119 7.29764 6.35835 7.21048C6.43545 7.13338 6.53266 7.006 6.61982 6.90544C6.70697 6.80487 6.73714 6.73112 6.79413 6.6138C6.85112 6.49647 6.8243 6.39591 6.78072 6.30875C6.73714 6.2216 6.38852 5.3601 6.24102 5.01147C6.10023 4.66955 5.95609 4.71648 5.84882 4.71313C5.74826 4.70642 5.63093 4.70643 5.51361 4.70643C5.39628 4.70643 5.20856 4.75 5.04766 4.92432C4.88676 5.09863 4.43757 5.521 4.43757 6.3825C4.43757 7.244 5.06442 8.07198 5.15158 8.18931C5.23873 8.30663 6.38181 10.0699 8.13499 10.8275C8.55066 11.0085 8.87581 11.1157 9.13058 11.1962C9.5496 11.3303 9.92839 11.3102 10.2301 11.2666C10.5653 11.2163 11.2625 10.8442 11.41 10.4353C11.5542 10.0263 11.5542 9.67766 11.5106 9.60392C11.467 9.53017 11.3497 9.48659 11.1754 9.39944Z" fill="white"/>
</svg>
