<svg width="250" height="76" viewBox="0 0 250 76" fill="none" xmlns="http://www.w3.org/2000/svg">
<path fill-rule="evenodd" clip-rule="evenodd" d="M154.841 59.0769C140.457 69.753 119.534 75.4411 101.489 75.4411C76.207 75.4411 53.5408 66.0776 36.2797 50.501C34.972 49.2759 36.1053 47.6132 37.7617 48.5758C56.3305 59.4269 79.2582 65.9026 102.971 65.9026C118.924 65.9026 136.534 62.5773 152.749 55.664C155.19 54.7014 157.195 57.3267 154.841 59.0769Z" fill="white"/>
<path fill-rule="evenodd" clip-rule="evenodd" d="M160.856 52.1636C159.026 49.8009 148.652 51.026 144.031 51.6386C142.636 51.8136 142.375 50.5885 143.682 49.7134C151.964 43.8503 165.477 45.6005 167.046 47.5257C168.615 49.4509 166.61 63.1023 158.851 69.578C157.631 70.5406 156.498 70.0155 157.021 68.7029C158.764 64.3274 162.687 54.6139 160.856 52.1636Z" fill="white"/>
<path fill-rule="evenodd" clip-rule="evenodd" d="M144.293 8.58401V2.89591C144.293 2.02081 144.903 1.49576 145.688 1.49576H170.969C171.754 1.49576 172.451 2.10832 172.451 2.89591V7.70891C172.451 8.4965 171.754 9.54661 170.533 11.2968L157.457 30.0238C162.338 29.9363 167.482 30.6363 171.841 33.0866C172.8 33.6116 173.061 34.4867 173.148 35.2743V41.3125C173.148 42.1875 172.277 43.1501 171.318 42.6251C163.559 38.5122 153.185 38.0746 144.641 42.7126C143.77 43.1501 142.811 42.2751 142.811 41.4V35.6244C142.811 34.7493 142.811 33.1741 143.77 31.7739L158.939 9.98415H145.775C144.99 9.98415 144.293 9.37159 144.293 8.58401ZM52.146 43.8502H44.4743C43.7769 43.7627 43.1667 43.2377 43.0795 42.5376V2.98342C43.0795 2.19583 43.7769 1.58327 44.5615 1.58327H51.7101C52.4947 1.58327 53.0177 2.19583 53.1049 2.89591V8.05895H53.2793C55.11 3.07092 58.6843 0.708176 63.3919 0.708176C68.1866 0.708176 71.2379 3.07092 73.3301 8.05895C75.1609 3.07092 79.4326 0.708176 83.9658 0.708176C87.1914 0.708176 90.6785 2.02081 92.8579 5.08364C95.2989 8.40899 94.7758 13.222 94.7758 17.5099V42.5376C94.7758 43.3252 94.0784 43.9377 93.2938 43.9377H85.7093C84.9247 43.8502 84.3145 43.2377 84.3145 42.5376V21.5354C84.3145 19.8727 84.4889 15.6723 84.1401 14.0971C83.5299 11.4718 81.8735 10.6842 79.6069 10.6842C77.7762 10.6842 75.7711 11.9094 74.9865 13.9221C74.2019 15.9348 74.2891 19.2601 74.2891 21.5354V42.5376C74.2891 43.3252 73.5917 43.9377 72.8071 43.9377H65.1354C64.3508 43.8502 63.7406 43.2377 63.7406 42.5376V21.5354C63.7406 17.1599 64.438 10.5967 59.033 10.5967C53.5408 10.5967 53.7152 16.8974 53.7152 21.5354V42.5376C53.628 43.2377 53.0177 43.8502 52.146 43.8502ZM194.245 0.708176C205.666 0.708176 211.855 10.5092 211.855 23.023C211.855 35.0993 205.055 44.7253 194.245 44.7253C183.087 44.7253 176.984 34.9243 176.984 22.673C176.897 10.3342 183.087 0.708176 194.245 0.708176ZM194.245 8.84653C188.579 8.84653 188.23 16.6349 188.23 21.4479C188.23 26.2609 188.143 36.587 194.158 36.587C200.086 36.587 200.435 28.2736 200.435 23.198C200.435 19.8727 200.261 15.8473 199.302 12.6969C198.43 9.89664 196.686 8.84653 194.245 8.84653ZM226.588 43.8502H218.917C218.132 43.7627 217.522 43.1501 217.522 42.4501V2.8084C217.609 2.10832 218.219 1.49576 219.004 1.49576H226.152C226.85 1.49576 227.373 2.02081 227.547 2.63338V8.67151H227.722C229.901 3.24594 232.865 0.708176 238.183 0.708176C241.583 0.708176 244.983 1.9333 247.162 5.34616C249.167 8.4965 249.167 13.8346 249.167 17.685V42.6251C249.08 43.3252 248.47 43.8502 247.685 43.8502H240.014C239.316 43.7627 238.706 43.2377 238.619 42.6251V21.0978C238.619 16.7224 239.142 10.4217 233.824 10.4217C231.993 10.4217 230.25 11.6468 229.378 13.572C228.332 16.0223 228.158 18.385 228.158 21.0978V42.4501C228.07 43.2377 227.373 43.8502 226.588 43.8502ZM124.155 24.9482C124.155 27.9235 124.242 30.4613 122.76 33.1741C121.539 35.3618 119.621 36.6745 117.442 36.6745C114.478 36.6745 112.734 34.3992 112.734 31.0739C112.734 24.5107 118.575 23.2856 124.155 23.2856V24.9482ZM131.913 43.7627C131.39 44.2003 130.693 44.2878 130.083 43.9377C127.555 41.8375 127.032 40.7874 125.637 38.7747C121.452 43.0626 118.401 44.3753 112.996 44.3753C106.545 44.3753 101.488 40.3498 101.488 32.3865C101.488 26.0858 104.888 21.8854 109.683 19.7852C113.868 17.9475 119.709 17.5975 124.155 17.0724V16.1098C124.155 14.2721 124.329 12.0844 123.196 10.5092C122.237 9.10906 120.493 8.4965 118.924 8.4965C115.96 8.4965 113.345 9.98415 112.734 13.1345C112.56 13.8346 112.124 14.5346 111.427 14.5346L104.017 13.747C103.406 13.572 102.709 13.1345 102.883 12.1719C104.627 3.07092 112.734 0.358139 120.057 0.358139C123.806 0.358139 128.688 1.32074 131.652 4.20854C135.401 7.70891 135.052 12.4344 135.052 17.5099V29.4987C135.052 33.0866 136.534 34.6618 137.929 36.6745C138.452 37.3745 138.539 38.2496 137.929 38.6872C136.272 39.9998 133.483 42.4501 131.913 43.7627ZM23.4645 24.9482C23.4645 27.9235 23.5517 30.4613 22.0697 33.1741C20.8492 35.3618 18.9313 36.6745 16.7519 36.6745C13.7878 36.6745 12.0443 34.3992 12.0443 31.0739C12.0443 24.5107 17.8852 23.2856 23.4645 23.2856V24.9482ZM31.1362 43.7627C30.6131 44.2003 29.9157 44.2878 29.3054 43.9377C26.7773 41.8375 26.2542 40.7874 24.8594 38.7747C20.6749 43.0626 17.6236 44.3753 12.2186 44.3753C5.76748 44.3753 0.711182 40.3498 0.711182 32.3865C0.711182 26.0858 4.11111 21.8854 8.90588 19.7852C13.0904 17.9475 18.9313 17.5975 23.3774 17.0724V16.1098C23.3774 14.2721 23.5517 12.0844 22.4184 10.5092C21.4594 9.10906 19.7159 8.4965 18.1467 8.4965C15.1827 8.4965 12.5673 9.98415 11.9571 13.1345C11.7827 13.8346 11.3468 14.5346 10.6494 14.5346L3.23933 13.747C2.62909 13.572 1.93167 13.1345 2.10602 12.1719C3.84958 3.07092 11.9571 0.358139 19.28 0.358139C23.0286 0.358139 27.9106 1.32074 30.8746 4.20854C34.6233 7.70891 34.2746 12.4344 34.2746 17.5099V29.4987C34.2746 33.0866 35.7566 34.6618 37.1514 36.6745C37.6745 37.3745 37.7617 38.2496 37.1514 38.6872C35.495 39.9998 32.7054 42.4501 31.1362 43.7627Z" fill="white"/>
</svg>
