<svg width="1280" height="282" viewBox="0 0 1280 282" fill="none" xmlns="http://www.w3.org/2000/svg">
<rect x="-0.000976562" y="0.964966" width="1280" height="280.07" fill="#225D38"/>
<mask id="mask0" mask-type="alpha" maskUnits="userSpaceOnUse" x="907" y="192" width="381" height="89">
<rect x="907.999" y="192.609" width="379.378" height="88.3911" fill="#C4C4C4"/>
</mask>
<g mask="url(#mask0)">
<path d="M1329.41 322.099C1319.17 318.388 1311.64 312.483 1303.44 305.167C1299.68 301.822 1296.07 298.269 1292.62 294.611C1280.81 281.912 1271.35 267.332 1263.15 252.125C1259.44 245.174 1255.73 238.276 1251.13 231.901C1239.68 216.171 1223.22 202.532 1203.05 201.486C1184.87 200.546 1166.84 207.81 1151.79 217.582C1142.9 223.33 1135.06 229.967 1127.22 236.918C1117.98 245.122 1108.1 255.417 1095.5 258.239C1086.83 258.918 1078.15 258.814 1069.53 257.925C1065.51 257.769 1061.43 257.664 1057.41 257.507C1047.43 257.246 1037.44 256.933 1027.46 256.619C1013.2 256.41 998.931 256.671 984.873 259.493C973.01 262.263 961.409 265.712 949.965 269.893C940.244 273.289 917.199 281.808 915.265 282.435C913.697 282.748 912.077 283.009 910.509 283.062C910.509 283.062 876.594 296.753 856.004 323.875C835.414 350.998 1352.67 342.323 1352.67 342.323L1329.41 322.099Z" fill="#EF8215"/>
</g>
<mask id="mask1" mask-type="alpha" maskUnits="userSpaceOnUse" x="-1" y="3" width="381" height="89">
<rect x="379.377" y="91.3911" width="379.378" height="88.3911" transform="rotate(-180 379.377 91.3911)" fill="#C4C4C4"/>
</mask>
<g mask="url(#mask1)">
<path d="M-42.0363 -38.0987C-31.7937 -34.3884 -24.2685 -28.4832 -16.0639 -21.167C-12.3013 -17.8225 -8.69549 -14.2689 -5.24642 -10.6108C6.56397 2.08794 16.0227 16.668 24.2272 31.8752C27.9376 38.8256 31.6479 45.7237 36.2467 52.0992C47.6912 67.8289 64.1526 81.4684 84.3243 82.5135C102.51 83.4542 120.539 76.1903 135.59 66.418C144.474 60.6696 152.312 54.0327 160.151 47.0824C169.401 38.8778 179.278 28.5829 191.872 25.761C200.547 25.0816 209.222 25.1861 217.844 26.0745C221.868 26.2313 225.944 26.3358 229.968 26.4926C239.95 26.7539 249.931 27.0675 259.912 27.381C274.179 27.59 288.445 27.3287 302.503 24.5068C314.366 21.7371 325.967 18.2881 337.411 14.1074C347.132 10.7106 370.177 2.1925 372.111 1.56539C373.679 1.25185 375.299 0.99055 376.866 0.938289C376.866 0.938289 410.782 -12.7534 431.372 -39.8755C451.962 -66.9975 -65.2912 -58.3227 -65.2912 -58.3227L-42.0363 -38.0987Z" fill="#EFC432"/>
</g>
</svg>
