<svg width="65" height="64" viewBox="0 0 65 64" fill="none" xmlns="http://www.w3.org/2000/svg">
<path d="M48.0241 17.9943C47.5248 17.495 47.2752 16.9958 46.776 16.4965C40.0361 10.0063 28.0542 11.2544 20.8151 16.2469C14.5746 20.7401 12.3279 28.2288 14.0753 35.7175C15.573 42.4574 21.3144 49.1972 28.5535 50.4453C49.0226 54.4393 59.0075 31.7236 48.0241 17.9943Z" fill="#F1C618"/>
<path d="M24.062 24.7338C24.5612 23.985 25.3101 23.4857 26.059 23.2361C27.0575 22.9865 28.0559 22.9865 28.8048 23.4857C29.5537 23.985 31.301 25.4827 30.3026 26.4812C30.0529 26.7308 29.5537 26.7308 29.0544 26.7308C28.5552 26.4812 27.8063 26.2316 27.3071 26.2316C26.3086 26.2316 25.8093 27.2301 25.3101 27.7293C25.0605 28.2286 24.5612 28.4782 24.062 28.4782C23.8123 28.4782 23.5627 28.2286 23.3131 27.979C23.3131 27.7293 23.0635 27.4797 23.0635 26.9805C23.3131 26.2316 23.5627 25.4827 24.062 24.7338Z" fill="#19467F"/>
<path d="M33.0479 30.4754C33.2975 30.2258 33.2975 29.9761 33.5471 29.7265C33.7968 29.4769 33.7968 28.4784 34.296 28.4784C34.7953 28.4784 34.7953 29.2273 34.7953 29.4769C34.7953 30.4754 34.296 31.2243 33.2975 31.4739C32.5486 31.7235 31.7998 31.7235 31.0509 31.2243C30.5517 30.9746 30.302 30.4754 30.302 30.2258C30.0524 29.7265 30.302 29.2273 30.8013 29.2273C31.3005 29.2273 31.5501 29.7265 32.0494 30.2258C32.299 30.4754 32.7983 30.725 33.0479 30.4754Z" fill="#19467F"/>
<path d="M41.036 22.9866C39.7878 20.9896 36.7924 20.2408 34.7954 22.737C34.7954 22.9866 34.5458 22.9866 34.5458 23.2362C34.0465 23.9851 33.7969 25.4828 35.045 25.7325C35.2946 25.7325 35.2946 25.7325 35.5443 25.7325C36.2931 25.4828 36.5427 24.9836 37.2916 24.734C38.0405 24.4844 38.7894 24.4844 39.5382 24.9836C40.0375 25.2332 40.7863 25.9821 41.2856 25.4828C42.0345 24.9836 41.2856 23.7355 41.036 22.9866Z" fill="#19467F"/>
<path d="M7.33652 18.4934C7.33652 18.4934 7.0869 18.4934 7.33652 18.4934C6.08841 17.9941 4.09142 17.7445 3.34255 18.9926C2.34406 20.9896 5.08991 22.4874 6.83728 22.9866C7.83577 23.2362 9.58313 23.7355 10.5816 22.9866C12.0794 21.7385 8.08539 19.2423 7.33652 18.4934Z" fill="#EE8515"/>
<path d="M9.58361 12.0032C9.33398 11.2544 9.08436 9.75661 9.83323 9.25737C11.331 8.25887 13.328 10.0062 14.0768 11.0047C14.8257 11.7536 17.8212 15.9972 14.8257 15.7476C13.0783 15.498 11.0813 14.0002 10.0829 12.5025C9.83323 12.2528 9.83323 12.2528 9.58361 12.0032Z" fill="#EE8515"/>
<path d="M18.5703 4.5147C18.5703 4.01545 18.8199 3.76583 19.0696 3.26658C19.8184 2.51771 20.8169 2.76733 21.5658 3.26658C22.065 3.5162 22.3147 4.01545 22.5643 4.5147C23.3132 5.76281 23.8124 8.00942 23.8124 9.50716C23.5628 11.0049 22.5643 10.7553 21.5658 10.0064C20.3177 9.00792 19.3192 7.51018 18.8199 6.01244C18.5703 5.51319 18.5703 5.01394 18.5703 4.5147Z" fill="#EE8515"/>
<path d="M29.802 1.76871C30.0516 1.01984 30.8005 0.27097 31.799 0.0213464C33.5463 -0.228277 34.2952 1.76871 34.2952 3.01683C34.2952 4.26494 33.796 5.76268 33.0471 7.0108C32.2982 8.25892 31.0501 9.25741 30.3012 7.51005C29.802 6.26193 29.3027 4.76419 29.3027 3.51607C29.5524 3.01683 29.5524 2.26796 29.802 1.76871Z" fill="#EE8515"/>
<path d="M43.7818 2.01843C41.0359 2.51767 40.5367 6.76127 40.7863 8.75826C41.0359 10.0064 42.0344 10.256 43.0329 9.50713C44.0314 8.75826 44.7803 7.75976 45.2795 6.76127C46.0284 5.76278 46.278 4.26504 46.0284 3.01692C45.7787 2.26805 44.5306 1.7688 43.7818 2.01843Z" fill="#EE8515"/>
<path d="M1.59522 32.7222C3.34259 34.4695 6.83731 33.2214 8.33505 31.9733C9.08392 31.2244 9.08392 30.4755 7.83581 29.9763C6.83731 29.4771 5.83882 29.4771 4.5907 29.4771C3.59221 29.4771 1.84485 29.7267 1.09598 30.4755C0.846352 30.9748 1.09598 31.9733 1.59522 32.7222Z" fill="#EE8515"/>
<path d="M49.772 13.7505C49.5224 14.749 50.2713 15.2483 51.2698 15.2483C53.2667 14.9987 56.5118 13.5009 56.7615 11.2543C56.7615 10.2558 56.2622 9.50694 55.2637 9.25732C54.0156 9.00769 53.0171 9.50694 52.0186 10.2558C51.0201 11.0047 50.0216 12.5024 49.772 13.7505Z" fill="#EE8515"/>
<path d="M10.5826 41.2091C11.0819 40.2106 10.333 39.4618 9.33453 39.4618C7.33754 39.2121 3.84281 39.961 3.09394 42.2076C2.84432 42.9565 3.09394 43.955 4.09243 44.4542C5.09093 44.9535 6.58867 44.4542 7.58716 43.955C8.83528 43.2061 9.83377 42.2076 10.5826 41.2091Z" fill="#EE8515"/>
<path d="M60.7567 19.2422C60.0079 19.2422 59.0094 19.4918 58.2605 19.9911C57.5116 20.4903 56.7628 20.7399 56.2635 21.2392C55.7643 21.4888 55.265 21.988 55.5146 22.7369C55.7643 23.2362 56.2635 23.4858 56.7628 23.4858C58.2605 23.7354 60.0079 23.7354 61.5056 22.9865C61.7552 22.7369 62.2545 22.7369 62.5041 22.4873C63.253 21.2392 62.5041 19.2422 60.7567 19.2422Z" fill="#EE8515"/>
<path d="M51.2706 53.4408C51.2706 53.6904 51.2706 53.6904 51.2706 53.4408C52.0195 54.4393 53.5172 55.4378 54.5157 54.6889C56.2631 53.4408 54.5157 50.9445 53.2676 50.1957C52.5187 49.6964 51.2706 48.4483 50.2721 48.6979C48.5247 49.1972 50.7713 52.6919 51.2706 53.4408Z" fill="#EE8515"/>
<path d="M45.5303 58.6829C45.5303 59.4317 45.2807 60.6799 44.2822 60.9295C42.7844 61.1791 41.786 58.9325 41.5363 57.934C41.2867 56.9355 40.5378 52.4423 42.5348 53.6904C44.0326 54.6889 45.0311 56.4363 45.5303 58.1836C45.5303 58.4332 45.5303 58.6829 45.5303 58.6829Z" fill="#EE8515"/>
<path d="M34.5454 62.4271C34.2958 62.6767 34.0461 62.9264 33.7965 63.176C33.0476 63.4256 32.0492 62.9264 31.7995 62.1775C31.5499 61.6782 31.5499 61.179 31.3003 60.6797C31.0507 59.182 31.5499 57.4346 32.2988 56.1865C33.0476 54.9384 33.7965 55.6873 34.2958 56.6858C35.0446 57.9339 35.2943 59.4316 35.2943 60.9294C35.0446 61.4286 34.795 61.9279 34.5454 62.4271Z" fill="#EE8515"/>
<path d="M22.8132 60.1804C22.314 60.6797 21.3155 61.1789 20.5666 60.9293C19.0689 60.4301 19.0689 58.6827 19.5681 57.4346C20.0674 56.4361 21.0659 55.188 22.0644 54.4391C23.0628 53.6902 24.5606 53.4406 24.5606 54.9384C24.5606 56.1865 24.311 57.6842 23.8117 58.6827C23.3125 59.182 23.0628 59.6812 22.8132 60.1804Z" fill="#EE8515"/>
<path d="M10.5813 54.1896C13.0776 54.6888 15.0746 51.4437 15.3242 49.6964C15.5738 48.4483 14.8249 47.949 13.8265 48.1986C12.828 48.4483 11.8295 48.9475 10.831 49.6964C9.83248 50.4452 9.08361 51.1941 8.83398 52.4422C8.83398 53.4407 9.83248 54.1896 10.5813 54.1896Z" fill="#EE8515"/>
<path d="M62.0041 43.2062C61.2552 41.2092 57.7605 40.9596 56.2627 41.4589C55.2642 41.7085 55.2642 42.4574 55.7635 43.2062C56.5123 43.9551 57.2612 44.4543 58.2597 44.704C59.2582 45.2032 60.5063 45.4528 61.5048 45.2032C62.0041 44.9536 62.2537 43.9551 62.0041 43.2062Z" fill="#EE8515"/>
<path d="M57.2623 32.2227C56.5135 32.9716 57.2623 33.7204 58.0112 33.9701C59.7586 34.4693 63.0037 34.2197 64.0022 32.2227C64.2518 31.4738 64.2518 30.725 63.5029 30.2257C62.5044 29.4768 61.2563 29.9761 60.2578 30.2257C59.0097 30.725 58.0112 31.4738 57.2623 32.2227Z" fill="#EE8515"/>
</svg>
